<svg xmlns="http://www.w3.org/2000/svg" viewBox="0 0 500 500" fill="none">
  <circle cx="250" cy="250" r="250" fill="#FF0420"/>
  <path d="M177.1 316.4c-14.9 0-26.6-3.7-35.1-11.2-8.4-7.5-12.6-18.2-12.6-32.1 0-19.8 5.3-36.7 15.8-50.7 10.6-14.1 25.5-21.1 44.7-21.1 9.8 0 18.1 2 24.9 5.9 6.8 3.9 11.9 9.4 15.3 16.4 3.4 7 5.1 15.2 5.1 24.4 0 12.8-2.5 24.4-7.6 34.8-5 10.3-12 18.4-20.9 24.3-8.9 5.8-18.8 9.3-29.6 9.3zm3.5-24.6c6.8 0 12.7-3.3 17.7-9.8 5.1-6.6 7.6-16.1 7.6-28.4 0-7.5-1.6-13.3-4.7-17.4-3.1-4.1-7.5-6.2-13.3-6.2-6.9 0-12.9 3.3-17.9 9.8-5 6.6-7.5 16-7.5 28.3 0 7.6 1.6 13.4 4.8 17.5 3.2 4.1 7.6 6.2 13.3 6.2zM260.5 314.1l18.4-108.6h41.3c12.5 0 22.1 2.8 28.8 8.5 6.7 5.6 10 13.6 10 24 0 13.5-4.3 24.4-12.8 32.7-8.5 8.2-20.2 12.3-35 12.3h-19.7l-6.7 31.1h-24.3zm38.2-52.8h13.3c7 0 12.6-1.7 16.8-5.1 4.2-3.5 6.3-8.2 6.3-14.3 0-4.3-1.4-7.5-4.1-9.7-2.7-2.2-6.7-3.3-12-3.3h-14.5l-5.8 32.4z" fill="white"/>
</svg>
