<svg xmlns="http://www.w3.org/2000/svg" viewBox="0 0 178 200" fill="none">
  <path d="M133.3 50L89 25 44.7 50 44.7 100 89 125 133.3 100z" fill="#8247E5"/>
  <path d="M133.3 50L89 75 44.7 50M133.3 50V100L89 125M89 75V125M89 75L44.7 100M89 125L44.7 100" stroke="#8247E5" stroke-width="2"/>
  <path fill="#8247E5" d="M130.5 58.3l-27.8-16-13.9-8-13.9 8-27.7 16-13.9 8v48l13.9 8 27.7 16 14 8 13.8-8 27.8-16 13.9-8v-48l-13.9-8zM88.8 148.3l-27.7-16-13.9-8V76.4l13.9-8 27.7-16 13.9 8 27.8 16v48l-27.8 16-13.9 8z"/>
</svg>
